# xmcd CD database file
#
# Track frame offsets:
#	182
#	16292
#	28635
#	49005
#	63760
#	83082
#	105230
#	125512
#	139725
#	155712
#	172805
#	189212
#	202207
#
# Disc length: 2989 seconds
#
# Revision: 0
# Processed by: cddbd v1.5.1PL0 Copyright (c) Steve Scherf et al.
# Submitted via: CDex 1.51
#
DISCID=a10bab0d
DTITLE=Philippe Petit - Guitar Reflections
DYEAR=1991
DGENRE=Jazz
TTITLE0=Blues for Wes
TTITLE1=Garden song
TTITLE2=Pantxoa
TTITLE3=Belle epoque
TTITLE4=Nuages
TTITLE5=Pottocks in the mountain
TTITLE6=Blue romance
TTITLE7=One for Slim
TTITLE8=Dov'e finito Riccardo
TTITLE9=Here's that rainy day
TTITLE10=Talkin' about GG
TTITLE11=22 Cauchy street
TTITLE12=Polka dots and moonbeams
EXTD=YEAR: 1991
EXTT0=
EXTT1=
EXTT2=
EXTT3=
EXTT4=
EXTT5=
EXTT6=
EXTT7=
EXTT8=
EXTT9=
EXTT10=
EXTT11=
EXTT12=
PLAYORDER=
